<svg xmlns="http://www.w3.org/2000/svg" xmlns:xlink="http://www.w3.org/1999/xlink" width="1920" zoomAndPan="magnify" viewBox="0 0 1440 525.000007" height="700" preserveAspectRatio="xMidYMid meet" version="1.0"><defs><g/><clipPath id="61f42f1958"><path d="M 34.117188 62.847656 L 75.257812 62.847656 L 75.257812 446.59375 L 34.117188 446.59375 Z M 34.117188 62.847656 " clip-rule="nonzero"/></clipPath><clipPath id="6da57b8c59"><path d="M 54.320312 62.847656 L 55.054688 62.847656 C 66.214844 62.847656 75.257812 71.894531 75.257812 83.050781 L 75.257812 426.355469 C 75.257812 437.511719 66.214844 446.554688 55.054688 446.554688 L 54.320312 446.554688 C 43.164062 446.554688 34.117188 437.511719 34.117188 426.355469 L 34.117188 83.050781 C 34.117188 71.894531 43.164062 62.847656 54.320312 62.847656 Z M 54.320312 62.847656 " clip-rule="nonzero"/></clipPath><clipPath id="8b568456fb"><path d="M 0.117188 0.847656 L 41.257812 0.847656 L 41.257812 384.554688 L 0.117188 384.554688 Z M 0.117188 0.847656 " clip-rule="nonzero"/></clipPath><clipPath id="43473b41e1"><path d="M 20.320312 0.847656 L 21.054688 0.847656 C 32.214844 0.847656 41.257812 9.894531 41.257812 21.050781 L 41.257812 364.355469 C 41.257812 375.511719 32.214844 384.554688 21.054688 384.554688 L 20.320312 384.554688 C 9.164062 384.554688 0.117188 375.511719 0.117188 364.355469 L 0.117188 21.050781 C 0.117188 9.894531 9.164062 0.847656 20.320312 0.847656 Z M 20.320312 0.847656 " clip-rule="nonzero"/></clipPath><linearGradient x1="128" gradientTransform="matrix(0.160698, 0, 0, 0.160698, 0.118875, 0.848322)" y1="0.00636873" x2="128" gradientUnits="userSpaceOnUse" y2="2387.7471" id="f70a218fa6"><stop stop-opacity="1" stop-color="rgb(30.589294%, 15.689087%, 47.059631%)" offset="0"/><stop stop-opacity="1" stop-color="rgb(30.589294%, 15.689087%, 47.059631%)" offset="0.25"/><stop stop-opacity="1" stop-color="rgb(30.589294%, 15.689087%, 47.059631%)" offset="0.3125"/><stop stop-opacity="1" stop-color="rgb(30.589294%, 15.689087%, 47.059631%)" offset="0.328125"/><stop stop-opacity="1" stop-color="rgb(30.561829%, 15.95459%, 47.209167%)" offset="0.332031"/><stop stop-opacity="1" stop-color="rgb(30.534363%, 16.220093%, 47.360229%)" offset="0.335938"/><stop stop-opacity="1" stop-color="rgb(30.459595%, 16.926575%, 47.758484%)" offset="0.339844"/><stop stop-opacity="1" stop-color="rgb(30.386353%, 17.633057%, 48.158264%)" offset="0.34375"/><stop stop-opacity="1" stop-color="rgb(30.31311%, 18.339539%, 48.556519%)" offset="0.347656"/><stop stop-opacity="1" stop-color="rgb(30.239868%, 19.046021%, 48.956299%)" offset="0.351562"/><stop stop-opacity="1" stop-color="rgb(30.166626%, 19.752502%, 49.354553%)" offset="0.355469"/><stop stop-opacity="1" stop-color="rgb(30.093384%, 20.458984%, 49.754333%)" offset="0.359375"/><stop stop-opacity="1" stop-color="rgb(30.020142%, 21.16394%, 50.152588%)" offset="0.363281"/><stop stop-opacity="1" stop-color="rgb(29.946899%, 21.870422%, 50.552368%)" offset="0.367188"/><stop stop-opacity="1" stop-color="rgb(29.872131%, 22.576904%, 50.950623%)" offset="0.371094"/><stop stop-opacity="1" stop-color="rgb(29.798889%, 23.283386%, 51.350403%)" offset="0.375"/><stop stop-opacity="1" stop-color="rgb(29.725647%, 23.989868%, 51.748657%)" offset="0.378906"/><stop stop-opacity="1" stop-color="rgb(29.652405%, 24.69635%, 52.148438%)" offset="0.382813"/><stop stop-opacity="1" stop-color="rgb(29.579163%, 25.402832%, 52.546692%)" offset="0.386719"/><stop stop-opacity="1" stop-color="rgb(29.50592%, 26.109314%, 52.946472%)" offset="0.390625"/><stop stop-opacity="1" stop-color="rgb(29.432678%, 26.81427%, 53.344727%)" offset="0.394531"/><stop stop-opacity="1" stop-color="rgb(29.359436%, 27.520752%, 53.744507%)" offset="0.398438"/><stop stop-opacity="1" stop-color="rgb(29.284668%, 28.227234%, 54.142761%)" offset="0.402344"/><stop stop-opacity="1" stop-color="rgb(29.211426%, 28.933716%, 54.542542%)" offset="0.40625"/><stop stop-opacity="1" stop-color="rgb(29.138184%, 29.640198%, 54.940796%)" offset="0.410156"/><stop stop-opacity="1" stop-color="rgb(29.064941%, 30.34668%, 55.340576%)" offset="0.414062"/><stop stop-opacity="1" stop-color="rgb(28.991699%, 31.051636%, 55.738831%)" offset="0.417969"/><stop stop-opacity="1" stop-color="rgb(28.918457%, 31.758118%, 56.138611%)" offset="0.421875"/><stop stop-opacity="1" stop-color="rgb(28.845215%, 32.4646%, 56.536865%)" offset="0.425781"/><stop stop-opacity="1" stop-color="rgb(28.771973%, 33.171082%, 56.936646%)" offset="0.429688"/><stop stop-opacity="1" stop-color="rgb(28.697205%, 33.877563%, 57.3349%)" offset="0.433594"/><stop stop-opacity="1" stop-color="rgb(28.623962%, 34.584045%, 57.73468%)" offset="0.4375"/><stop stop-opacity="1" stop-color="rgb(28.55072%, 35.290527%, 58.132935%)" offset="0.441406"/><stop stop-opacity="1" stop-color="rgb(28.477478%, 35.997009%, 58.532715%)" offset="0.445312"/><stop stop-opacity="1" stop-color="rgb(28.404236%, 36.701965%, 58.930969%)" offset="0.449219"/><stop stop-opacity="1" stop-color="rgb(28.330994%, 37.408447%, 59.33075%)" offset="0.453125"/><stop stop-opacity="1" stop-color="rgb(28.256226%, 38.114929%, 59.729004%)" offset="0.457031"/><stop stop-opacity="1" stop-color="rgb(28.182983%, 38.821411%, 60.128784%)" offset="0.460938"/><stop stop-opacity="1" stop-color="rgb(28.109741%, 39.527893%, 60.527039%)" offset="0.464844"/><stop stop-opacity="1" stop-color="rgb(28.036499%, 40.234375%, 60.926819%)" offset="0.46875"/><stop stop-opacity="1" stop-color="rgb(27.963257%, 40.940857%, 61.325073%)" offset="0.472656"/><stop stop-opacity="1" stop-color="rgb(27.890015%, 41.647339%, 61.724854%)" offset="0.476562"/><stop stop-opacity="1" stop-color="rgb(27.816772%, 42.352295%, 62.123108%)" offset="0.480469"/><stop stop-opacity="1" stop-color="rgb(27.74353%, 43.058777%, 62.522888%)" offset="0.484375"/><stop stop-opacity="1" stop-color="rgb(27.668762%, 43.765259%, 62.921143%)" offset="0.488281"/><stop stop-opacity="1" stop-color="rgb(27.59552%, 44.471741%, 63.320923%)" offset="0.492188"/><stop stop-opacity="1" stop-color="rgb(27.522278%, 45.178223%, 63.719177%)" offset="0.496094"/><stop stop-opacity="1" stop-color="rgb(27.449036%, 45.884705%, 64.118958%)" offset="0.5"/><stop stop-opacity="1" stop-color="rgb(27.375793%, 46.591187%, 64.517212%)" offset="0.503906"/><stop stop-opacity="1" stop-color="rgb(27.302551%, 47.297668%, 64.916992%)" offset="0.507812"/><stop stop-opacity="1" stop-color="rgb(27.229309%, 48.002625%, 65.315247%)" offset="0.511719"/><stop stop-opacity="1" stop-color="rgb(27.156067%, 48.709106%, 65.715027%)" offset="0.515625"/><stop stop-opacity="1" stop-color="rgb(27.081299%, 49.415588%, 66.113281%)" offset="0.519531"/><stop stop-opacity="1" stop-color="rgb(27.008057%, 50.12207%, 66.513062%)" offset="0.523437"/><stop stop-opacity="1" stop-color="rgb(26.934814%, 50.828552%, 66.911316%)" offset="0.527344"/><stop stop-opacity="1" stop-color="rgb(26.861572%, 51.535034%, 67.311096%)" offset="0.53125"/><stop stop-opacity="1" stop-color="rgb(26.78833%, 52.241516%, 67.709351%)" offset="0.535156"/><stop stop-opacity="1" stop-color="rgb(26.715088%, 52.947998%, 68.109131%)" offset="0.539062"/><stop stop-opacity="1" stop-color="rgb(26.641846%, 53.652954%, 68.507385%)" offset="0.542969"/><stop stop-opacity="1" stop-color="rgb(26.568604%, 54.359436%, 68.907166%)" offset="0.546875"/><stop stop-opacity="1" stop-color="rgb(26.493835%, 55.065918%, 69.306946%)" offset="0.550781"/><stop stop-opacity="1" stop-color="rgb(26.420593%, 55.7724%, 69.706726%)" offset="0.554688"/><stop stop-opacity="1" stop-color="rgb(26.347351%, 56.478882%, 70.10498%)" offset="0.558594"/><stop stop-opacity="1" stop-color="rgb(26.274109%, 57.185364%, 70.504761%)" offset="0.5625"/><stop stop-opacity="1" stop-color="rgb(26.200867%, 57.89032%, 70.903015%)" offset="0.566406"/><stop stop-opacity="1" stop-color="rgb(26.127625%, 58.596802%, 71.302795%)" offset="0.570312"/><stop stop-opacity="1" stop-color="rgb(26.052856%, 59.303284%, 71.70105%)" offset="0.574219"/><stop stop-opacity="1" stop-color="rgb(25.979614%, 60.009766%, 72.10083%)" offset="0.578125"/><stop stop-opacity="1" stop-color="rgb(25.906372%, 60.716248%, 72.499084%)" offset="0.582031"/><stop stop-opacity="1" stop-color="rgb(25.83313%, 61.422729%, 72.898865%)" offset="0.585938"/><stop stop-opacity="1" stop-color="rgb(25.759888%, 62.129211%, 73.297119%)" offset="0.589844"/><stop stop-opacity="1" stop-color="rgb(25.686646%, 62.835693%, 73.696899%)" offset="0.59375"/><stop stop-opacity="1" stop-color="rgb(25.613403%, 63.540649%, 74.095154%)" offset="0.597656"/><stop stop-opacity="1" stop-color="rgb(25.540161%, 64.247131%, 74.494934%)" offset="0.601562"/><stop stop-opacity="1" stop-color="rgb(25.465393%, 64.953613%, 74.893188%)" offset="0.605469"/><stop stop-opacity="1" stop-color="rgb(25.392151%, 65.660095%, 75.292969%)" offset="0.609375"/><stop stop-opacity="1" stop-color="rgb(25.318909%, 66.366577%, 75.691223%)" offset="0.613281"/><stop stop-opacity="1" stop-color="rgb(25.245667%, 67.073059%, 76.091003%)" offset="0.617188"/><stop stop-opacity="1" stop-color="rgb(25.172424%, 67.779541%, 76.489258%)" offset="0.621094"/><stop stop-opacity="1" stop-color="rgb(25.099182%, 68.486023%, 76.889038%)" offset="0.625"/><stop stop-opacity="1" stop-color="rgb(25.02594%, 69.190979%, 77.287292%)" offset="0.628906"/><stop stop-opacity="1" stop-color="rgb(24.952698%, 69.897461%, 77.687073%)" offset="0.632813"/><stop stop-opacity="1" stop-color="rgb(24.87793%, 70.603943%, 78.085327%)" offset="0.636719"/><stop stop-opacity="1" stop-color="rgb(24.804688%, 71.310425%, 78.485107%)" offset="0.640625"/><stop stop-opacity="1" stop-color="rgb(24.731445%, 72.016907%, 78.883362%)" offset="0.644531"/><stop stop-opacity="1" stop-color="rgb(24.658203%, 72.723389%, 79.283142%)" offset="0.648438"/><stop stop-opacity="1" stop-color="rgb(24.584961%, 73.429871%, 79.681396%)" offset="0.652344"/><stop stop-opacity="1" stop-color="rgb(24.511719%, 74.136353%, 80.081177%)" offset="0.65625"/><stop stop-opacity="1" stop-color="rgb(24.436951%, 74.841309%, 80.479431%)" offset="0.660156"/><stop stop-opacity="1" stop-color="rgb(24.363708%, 75.547791%, 80.879211%)" offset="0.664063"/><stop stop-opacity="1" stop-color="rgb(24.336243%, 75.813293%, 81.028748%)" offset="0.667969"/><stop stop-opacity="1" stop-color="rgb(24.308777%, 76.078796%, 81.17981%)" offset="0.671875"/><stop stop-opacity="1" stop-color="rgb(24.308777%, 76.078796%, 81.17981%)" offset="0.6875"/><stop stop-opacity="1" stop-color="rgb(24.308777%, 76.078796%, 81.17981%)" offset="0.75"/><stop stop-opacity="1" stop-color="rgb(24.308777%, 76.078796%, 81.17981%)" offset="1"/></linearGradient><clipPath id="e85739b84c"><rect x="0" width="42" y="0" height="385"/></clipPath><clipPath id="76f94442a8"><rect x="0" width="1314" y="0" height="140"/></clipPath><clipPath id="85c765a164"><rect x="0" width="1040" y="0" height="370"/></clipPath></defs><g clip-path="url(#61f42f1958)"><g clip-path="url(#6da57b8c59)"><g transform="matrix(1, 0, 0, 1, 34, 62)"><g clip-path="url(#e85739b84c)"><g clip-path="url(#8b568456fb)"><g clip-path="url(#43473b41e1)"><path fill="url(#f70a218fa6)" d="M 0.117188 0.847656 L 0.117188 384.554688 L 41.257812 384.554688 L 41.257812 0.847656 Z M 0.117188 0.847656 " fill-rule="nonzero"/></g></g></g></g></g></g><g transform="matrix(1, 0, 0, 1, 121, 311)"><g clip-path="url(#76f94442a8)"><g fill="#2d8b94" fill-opacity="1"><g transform="translate(0.530793, 103.150474)"><g><path d="M 7.421875 -66.609375 L 7.421875 0 L 18.84375 0 L 18.84375 -66.609375 Z M 7.421875 -66.609375 "/></g></g></g><g fill="#2d8b94" fill-opacity="1"><g transform="translate(20.795998, 103.150474)"><g><path d="M 34.734375 -26.640625 L 34.734375 0 L 45.296875 0 L 45.296875 -27.875 C 45.296875 -33.082031 43.992188 -37.191406 41.390625 -40.203125 C 38.785156 -43.210938 35.007812 -44.71875 30.0625 -44.71875 C 27.082031 -44.71875 24.5 -44.082031 22.3125 -42.8125 C 20.125 -41.550781 18.332031 -39.617188 16.9375 -37.015625 L 16.9375 -43.765625 L 6.5625 -43.765625 L 6.5625 0 L 16.9375 0 L 16.9375 -26.640625 C 16.9375 -28.609375 17.332031 -30.335938 18.125 -31.828125 C 18.914062 -33.316406 20.039062 -34.457031 21.5 -35.25 C 22.957031 -36.039062 24.671875 -36.4375 26.640625 -36.4375 C 29.367188 -36.4375 31.398438 -35.613281 32.734375 -33.96875 C 34.066406 -32.320312 34.734375 -29.878906 34.734375 -26.640625 Z M 34.734375 -26.640625 "/></g></g></g><g fill="#2d8b94" fill-opacity="1"><g transform="translate(66.750593, 103.150474)"><g><path d="M 34.734375 -26.640625 L 34.734375 0 L 45.296875 0 L 45.296875 -27.875 C 45.296875 -33.082031 43.992188 -37.191406 41.390625 -40.203125 C 38.785156 -43.210938 35.007812 -44.71875 30.0625 -44.71875 C 27.082031 -44.71875 24.5 -44.082031 22.3125 -42.8125 C 20.125 -41.550781 18.332031 -39.617188 16.9375 -37.015625 L 16.9375 -43.765625 L 6.5625 -43.765625 L 6.5625 0 L 16.9375 0 L 16.9375 -26.640625 C 16.9375 -28.609375 17.332031 -30.335938 18.125 -31.828125 C 18.914062 -33.316406 20.039062 -34.457031 21.5 -35.25 C 22.957031 -36.039062 24.671875 -36.4375 26.640625 -36.4375 C 29.367188 -36.4375 31.398438 -35.613281 32.734375 -33.96875 C 34.066406 -32.320312 34.734375 -29.878906 34.734375 -26.640625 Z M 34.734375 -26.640625 "/></g></g></g><g fill="#2d8b94" fill-opacity="1"><g transform="translate(112.705187, 103.150474)"><g><path d="M 3.234375 -21.890625 C 3.234375 -17.441406 4.265625 -13.488281 6.328125 -10.03125 C 8.390625 -6.582031 11.210938 -3.890625 14.796875 -1.953125 C 18.378906 -0.015625 22.390625 0.953125 26.828125 0.953125 C 31.335938 0.953125 35.367188 -0.015625 38.921875 -1.953125 C 42.472656 -3.890625 45.28125 -6.582031 47.34375 -10.03125 C 49.40625 -13.488281 50.4375 -17.441406 50.4375 -21.890625 C 50.4375 -26.390625 49.40625 -30.351562 47.34375 -33.78125 C 45.28125 -37.207031 42.472656 -39.882812 38.921875 -41.8125 C 35.367188 -43.75 31.335938 -44.71875 26.828125 -44.71875 C 22.390625 -44.71875 18.378906 -43.75 14.796875 -41.8125 C 11.210938 -39.882812 8.390625 -37.207031 6.328125 -33.78125 C 4.265625 -30.351562 3.234375 -26.390625 3.234375 -21.890625 Z M 13.796875 -21.890625 C 13.796875 -24.617188 14.363281 -27.03125 15.5 -29.125 C 16.644531 -31.21875 18.203125 -32.832031 20.171875 -33.96875 C 22.140625 -35.113281 24.359375 -35.6875 26.828125 -35.6875 C 29.304688 -35.6875 31.523438 -35.113281 33.484375 -33.96875 C 35.453125 -32.832031 37.007812 -31.21875 38.15625 -29.125 C 39.300781 -27.03125 39.875 -24.617188 39.875 -21.890625 C 39.875 -19.160156 39.300781 -16.765625 38.15625 -14.703125 C 37.007812 -12.640625 35.453125 -11.019531 33.484375 -9.84375 C 31.523438 -8.675781 29.304688 -8.09375 26.828125 -8.09375 C 24.359375 -8.09375 22.140625 -8.675781 20.171875 -9.84375 C 18.203125 -11.019531 16.644531 -12.640625 15.5 -14.703125 C 14.363281 -16.765625 13.796875 -19.160156 13.796875 -21.890625 Z M 13.796875 -21.890625 "/></g></g></g><g fill="#2d8b94" fill-opacity="1"><g transform="translate(160.467559, 103.150474)"><g><path d="M -0.09375 -43.765625 L 22.640625 4 L 45.296875 -43.765625 L 34.0625 -43.765625 L 22.640625 -15.515625 L 11.234375 -43.765625 Z M -0.09375 -43.765625 "/></g></g></g><g fill="#2d8b94" fill-opacity="1"><g transform="translate(199.761931, 103.150474)"><g><path d="M 13.03125 -13.609375 C 13.03125 -15.003906 13.363281 -16.175781 14.03125 -17.125 C 14.695312 -18.082031 15.695312 -18.828125 17.03125 -19.359375 C 18.363281 -19.898438 20.109375 -20.171875 22.265625 -20.171875 C 24.742188 -20.171875 27.09375 -19.851562 29.3125 -19.21875 C 31.53125 -18.582031 33.625 -17.566406 35.59375 -16.171875 L 35.59375 -21.40625 C 35.019531 -22.101562 34.035156 -22.878906 32.640625 -23.734375 C 31.242188 -24.597656 29.484375 -25.34375 27.359375 -25.96875 C 25.234375 -26.601562 22.710938 -26.921875 19.796875 -26.921875 C 14.335938 -26.921875 10.117188 -25.664062 7.140625 -23.15625 C 4.160156 -20.65625 2.671875 -17.28125 2.671875 -13.03125 C 2.671875 -10.050781 3.363281 -7.515625 4.75 -5.421875 C 6.144531 -3.328125 8.015625 -1.738281 10.359375 -0.65625 C 12.710938 0.414062 15.253906 0.953125 17.984375 0.953125 C 20.523438 0.953125 23.015625 0.492188 25.453125 -0.421875 C 27.898438 -1.347656 29.929688 -2.757812 31.546875 -4.65625 C 33.160156 -6.5625 33.96875 -8.910156 33.96875 -11.703125 L 32.453125 -17.40625 C 32.453125 -15.1875 31.941406 -13.285156 30.921875 -11.703125 C 29.910156 -10.117188 28.5625 -8.894531 26.875 -8.03125 C 25.195312 -7.175781 23.3125 -6.75 21.21875 -6.75 C 19.632812 -6.75 18.222656 -7.003906 16.984375 -7.515625 C 15.742188 -8.023438 14.773438 -8.800781 14.078125 -9.84375 C 13.378906 -10.894531 13.03125 -12.148438 13.03125 -13.609375 Z M 9.796875 -32.359375 C 10.492188 -32.796875 11.476562 -33.347656 12.75 -34.015625 C 14.019531 -34.679688 15.554688 -35.25 17.359375 -35.71875 C 19.171875 -36.195312 21.09375 -36.4375 23.125 -36.4375 C 24.457031 -36.4375 25.691406 -36.3125 26.828125 -36.0625 C 27.972656 -35.8125 28.972656 -35.398438 29.828125 -34.828125 C 30.679688 -34.253906 31.332031 -33.523438 31.78125 -32.640625 C 32.226562 -31.753906 32.453125 -30.613281 32.453125 -29.21875 L 32.453125 0 L 42.53125 0 L 42.53125 -31.21875 C 42.53125 -34.132812 41.753906 -36.601562 40.203125 -38.625 C 38.648438 -40.65625 36.476562 -42.191406 33.6875 -43.234375 C 30.894531 -44.285156 27.722656 -44.8125 24.171875 -44.8125 C 20.046875 -44.8125 16.425781 -44.238281 13.3125 -43.09375 C 10.207031 -41.957031 7.640625 -40.785156 5.609375 -39.578125 Z M 9.796875 -32.359375 "/></g></g></g><g fill="#2d8b94" fill-opacity="1"><g transform="translate(241.815558, 103.150474)"><g><path d="M 13.421875 -21.890625 C 13.421875 -24.617188 14.019531 -27.03125 15.21875 -29.125 C 16.425781 -31.21875 18.0625 -32.863281 20.125 -34.0625 C 22.1875 -35.269531 24.488281 -35.875 27.03125 -35.875 C 29.050781 -35.875 31.015625 -35.554688 32.921875 -34.921875 C 34.828125 -34.285156 36.523438 -33.410156 38.015625 -32.296875 C 39.503906 -31.191406 40.597656 -29.910156 41.296875 -28.453125 L 41.296875 -39.875 C 39.773438 -41.332031 37.710938 -42.503906 35.109375 -43.390625 C 32.515625 -44.273438 29.660156 -44.71875 26.546875 -44.71875 C 22.109375 -44.71875 18.097656 -43.75 14.515625 -41.8125 C 10.929688 -39.882812 8.09375 -37.207031 6 -33.78125 C 3.90625 -30.351562 2.859375 -26.390625 2.859375 -21.890625 C 2.859375 -17.441406 3.90625 -13.488281 6 -10.03125 C 8.09375 -6.582031 10.929688 -3.890625 14.515625 -1.953125 C 18.097656 -0.015625 22.109375 0.953125 26.546875 0.953125 C 29.660156 0.953125 32.515625 0.507812 35.109375 -0.375 C 37.710938 -1.269531 39.773438 -2.476562 41.296875 -4 L 41.296875 -15.3125 C 40.597656 -13.925781 39.519531 -12.675781 38.0625 -11.5625 C 36.601562 -10.445312 34.9375 -9.554688 33.0625 -8.890625 C 31.195312 -8.222656 29.1875 -7.890625 27.03125 -7.890625 C 24.488281 -7.890625 22.1875 -8.492188 20.125 -9.703125 C 18.0625 -10.910156 16.425781 -12.5625 15.21875 -14.65625 C 14.019531 -16.75 13.421875 -19.160156 13.421875 -21.890625 Z M 13.421875 -21.890625 "/></g></g></g><g fill="#2d8b94" fill-opacity="1"><g transform="translate(281.966251, 103.150474)"><g><path d="M 6.1875 -61.1875 C 6.1875 -59.46875 6.835938 -57.988281 8.140625 -56.75 C 9.441406 -55.519531 10.945312 -54.90625 12.65625 -54.90625 C 14.5 -54.90625 16.050781 -55.519531 17.3125 -56.75 C 18.582031 -57.988281 19.21875 -59.46875 19.21875 -61.1875 C 19.21875 -62.957031 18.582031 -64.445312 17.3125 -65.65625 C 16.050781 -66.863281 14.5 -67.46875 12.65625 -67.46875 C 10.945312 -67.46875 9.441406 -66.863281 8.140625 -65.65625 C 6.835938 -64.445312 6.1875 -62.957031 6.1875 -61.1875 Z M 7.609375 -43.765625 L 7.609375 0 L 17.796875 0 L 17.796875 -43.765625 Z M 7.609375 -43.765625 "/></g></g></g><g fill="#2d8b94" fill-opacity="1"><g transform="translate(301.470292, 103.150474)"><g><path d="M 3.234375 -21.890625 C 3.234375 -17.441406 4.265625 -13.488281 6.328125 -10.03125 C 8.390625 -6.582031 11.210938 -3.890625 14.796875 -1.953125 C 18.378906 -0.015625 22.390625 0.953125 26.828125 0.953125 C 31.335938 0.953125 35.367188 -0.015625 38.921875 -1.953125 C 42.472656 -3.890625 45.28125 -6.582031 47.34375 -10.03125 C 49.40625 -13.488281 50.4375 -17.441406 50.4375 -21.890625 C 50.4375 -26.390625 49.40625 -30.351562 47.34375 -33.78125 C 45.28125 -37.207031 42.472656 -39.882812 38.921875 -41.8125 C 35.367188 -43.75 31.335938 -44.71875 26.828125 -44.71875 C 22.390625 -44.71875 18.378906 -43.75 14.796875 -41.8125 C 11.210938 -39.882812 8.390625 -37.207031 6.328125 -33.78125 C 4.265625 -30.351562 3.234375 -26.390625 3.234375 -21.890625 Z M 13.796875 -21.890625 C 13.796875 -24.617188 14.363281 -27.03125 15.5 -29.125 C 16.644531 -31.21875 18.203125 -32.832031 20.171875 -33.96875 C 22.140625 -35.113281 24.359375 -35.6875 26.828125 -35.6875 C 29.304688 -35.6875 31.523438 -35.113281 33.484375 -33.96875 C 35.453125 -32.832031 37.007812 -31.21875 38.15625 -29.125 C 39.300781 -27.03125 39.875 -24.617188 39.875 -21.890625 C 39.875 -19.160156 39.300781 -16.765625 38.15625 -14.703125 C 37.007812 -12.640625 35.453125 -11.019531 33.484375 -9.84375 C 31.523438 -8.675781 29.304688 -8.09375 26.828125 -8.09375 C 24.359375 -8.09375 22.140625 -8.675781 20.171875 -9.84375 C 18.203125 -11.019531 16.644531 -12.640625 15.5 -14.703125 C 14.363281 -16.765625 13.796875 -19.160156 13.796875 -21.890625 Z M 42.0625 -66.140625 L 33.40625 -70.421875 L 19.125 -55.1875 L 24.9375 -51.859375 Z M 42.0625 -66.140625 "/></g></g></g><g fill="#2d8b94" fill-opacity="1"><g transform="translate(349.232653, 103.150474)"><g><path d="M 34.734375 -26.640625 L 34.734375 0 L 45.296875 0 L 45.296875 -27.875 C 45.296875 -33.082031 43.992188 -37.191406 41.390625 -40.203125 C 38.785156 -43.210938 35.007812 -44.71875 30.0625 -44.71875 C 27.082031 -44.71875 24.5 -44.082031 22.3125 -42.8125 C 20.125 -41.550781 18.332031 -39.617188 16.9375 -37.015625 L 16.9375 -43.765625 L 6.5625 -43.765625 L 6.5625 0 L 16.9375 0 L 16.9375 -26.640625 C 16.9375 -28.609375 17.332031 -30.335938 18.125 -31.828125 C 18.914062 -33.316406 20.039062 -34.457031 21.5 -35.25 C 22.957031 -36.039062 24.671875 -36.4375 26.640625 -36.4375 C 29.367188 -36.4375 31.398438 -35.613281 32.734375 -33.96875 C 34.066406 -32.320312 34.734375 -29.878906 34.734375 -26.640625 Z M 34.734375 -26.640625 "/></g></g></g><g fill="#2d8b94" fill-opacity="1"><g transform="translate(395.187247, 103.150474)"><g/></g></g><g fill="#2d8b94" fill-opacity="1"><g transform="translate(417.831068, 103.150474)"><g><path d="M 45.296875 -43.765625 L 34.25 -43.765625 L 20.546875 -9.421875 L 25.40625 -9.140625 L 11.421875 -43.765625 L -0.375 -43.765625 L 17.3125 -5.140625 L 5.796875 20.9375 L 16.75 20.9375 Z M 45.296875 -43.765625 "/></g></g></g><g fill="#2d8b94" fill-opacity="1"><g transform="translate(456.935206, 103.150474)"><g/></g></g><g fill="#2d8b94" fill-opacity="1"><g transform="translate(479.579028, 103.150474)"><g><path d="M 0.765625 -56.234375 L 18.359375 -56.234375 L 18.359375 0 L 29.59375 0 L 29.59375 -56.234375 L 47.203125 -56.234375 L 47.203125 -66.609375 L 0.765625 -66.609375 Z M 0.765625 -56.234375 "/></g></g></g><g fill="#2d8b94" fill-opacity="1"><g transform="translate(521.632632, 103.150474)"><g><path d="M 25.59375 0.953125 C 30.664062 0.953125 35.007812 -0.046875 38.625 -2.046875 C 42.25 -4.046875 45.234375 -7.007812 47.578125 -10.9375 L 38.640625 -14.46875 C 37.304688 -12.113281 35.59375 -10.363281 33.5 -9.21875 C 31.40625 -8.082031 28.929688 -7.515625 26.078125 -7.515625 C 23.410156 -7.515625 21.15625 -8.082031 19.3125 -9.21875 C 17.476562 -10.363281 16.066406 -12.046875 15.078125 -14.265625 C 14.097656 -16.492188 13.640625 -19.160156 13.703125 -22.265625 C 13.703125 -25.441406 14.191406 -28.109375 15.171875 -30.265625 C 16.160156 -32.421875 17.554688 -34.066406 19.359375 -35.203125 C 21.171875 -36.347656 23.378906 -36.921875 25.984375 -36.921875 C 28.140625 -36.921875 30.023438 -36.441406 31.640625 -35.484375 C 33.253906 -34.535156 34.519531 -33.203125 35.4375 -31.484375 C 36.363281 -29.773438 36.828125 -27.75 36.828125 -25.40625 C 36.828125 -24.957031 36.710938 -24.414062 36.484375 -23.78125 C 36.265625 -23.15625 36.0625 -22.648438 35.875 -22.265625 L 39.015625 -26.640625 L 9.421875 -26.640625 L 9.421875 -19.5 L 47.859375 -19.5 C 47.859375 -19.757812 47.875 -20.171875 47.90625 -20.734375 C 47.9375 -21.304688 47.953125 -21.847656 47.953125 -22.359375 C 47.953125 -27.054688 47.09375 -31.066406 45.375 -34.390625 C 43.664062 -37.722656 41.175781 -40.273438 37.90625 -42.046875 C 34.644531 -43.828125 30.703125 -44.71875 26.078125 -44.71875 C 21.441406 -44.71875 17.410156 -43.78125 13.984375 -41.90625 C 10.554688 -40.039062 7.90625 -37.394531 6.03125 -33.96875 C 4.164062 -30.539062 3.234375 -26.515625 3.234375 -21.890625 C 3.234375 -17.316406 4.148438 -13.316406 5.984375 -9.890625 C 7.828125 -6.460938 10.445312 -3.796875 13.84375 -1.890625 C 17.238281 0.00390625 21.15625 0.953125 25.59375 0.953125 Z M 25.59375 0.953125 "/></g></g></g><g fill="#2d8b94" fill-opacity="1"><g transform="translate(567.016377, 103.150474)"><g><path d="M 13.421875 -21.890625 C 13.421875 -24.617188 14.019531 -27.03125 15.21875 -29.125 C 16.425781 -31.21875 18.0625 -32.863281 20.125 -34.0625 C 22.1875 -35.269531 24.488281 -35.875 27.03125 -35.875 C 29.050781 -35.875 31.015625 -35.554688 32.921875 -34.921875 C 34.828125 -34.285156 36.523438 -33.410156 38.015625 -32.296875 C 39.503906 -31.191406 40.597656 -29.910156 41.296875 -28.453125 L 41.296875 -39.875 C 39.773438 -41.332031 37.710938 -42.503906 35.109375 -43.390625 C 32.515625 -44.273438 29.660156 -44.71875 26.546875 -44.71875 C 22.109375 -44.71875 18.097656 -43.75 14.515625 -41.8125 C 10.929688 -39.882812 8.09375 -37.207031 6 -33.78125 C 3.90625 -30.351562 2.859375 -26.390625 2.859375 -21.890625 C 2.859375 -17.441406 3.90625 -13.488281 6 -10.03125 C 8.09375 -6.582031 10.929688 -3.890625 14.515625 -1.953125 C 18.097656 -0.015625 22.109375 0.953125 26.546875 0.953125 C 29.660156 0.953125 32.515625 0.507812 35.109375 -0.375 C 37.710938 -1.269531 39.773438 -2.476562 41.296875 -4 L 41.296875 -15.3125 C 40.597656 -13.925781 39.519531 -12.675781 38.0625 -11.5625 C 36.601562 -10.445312 34.9375 -9.554688 33.0625 -8.890625 C 31.195312 -8.222656 29.1875 -7.890625 27.03125 -7.890625 C 24.488281 -7.890625 22.1875 -8.492188 20.125 -9.703125 C 18.0625 -10.910156 16.425781 -12.5625 15.21875 -14.65625 C 14.019531 -16.75 13.421875 -19.160156 13.421875 -21.890625 Z M 13.421875 -21.890625 "/></g></g></g><g fill="#2d8b94" fill-opacity="1"><g transform="translate(607.16707, 103.150474)"><g><path d="M 34.734375 -26.640625 L 34.734375 0 L 45.296875 0 L 45.296875 -27.875 C 45.296875 -33.082031 43.992188 -37.191406 41.390625 -40.203125 C 38.785156 -43.210938 35.007812 -44.71875 30.0625 -44.71875 C 27.082031 -44.71875 24.5 -44.082031 22.3125 -42.8125 C 20.125 -41.550781 18.332031 -39.617188 16.9375 -37.015625 L 16.9375 -43.765625 L 6.5625 -43.765625 L 6.5625 0 L 16.9375 0 L 16.9375 -26.640625 C 16.9375 -28.609375 17.332031 -30.335938 18.125 -31.828125 C 18.914062 -33.316406 20.039062 -34.457031 21.5 -35.25 C 22.957031 -36.039062 24.671875 -36.4375 26.640625 -36.4375 C 29.367188 -36.4375 31.398438 -35.613281 32.734375 -33.96875 C 34.066406 -32.320312 34.734375 -29.878906 34.734375 -26.640625 Z M 34.734375 -26.640625 "/></g></g></g><g fill="#2d8b94" fill-opacity="1"><g transform="translate(653.121642, 103.150474)"><g><path d="M 3.234375 -21.890625 C 3.234375 -17.441406 4.265625 -13.488281 6.328125 -10.03125 C 8.390625 -6.582031 11.210938 -3.890625 14.796875 -1.953125 C 18.378906 -0.015625 22.390625 0.953125 26.828125 0.953125 C 31.335938 0.953125 35.367188 -0.015625 38.921875 -1.953125 C 42.472656 -3.890625 45.28125 -6.582031 47.34375 -10.03125 C 49.40625 -13.488281 50.4375 -17.441406 50.4375 -21.890625 C 50.4375 -26.390625 49.40625 -30.351562 47.34375 -33.78125 C 45.28125 -37.207031 42.472656 -39.882812 38.921875 -41.8125 C 35.367188 -43.75 31.335938 -44.71875 26.828125 -44.71875 C 22.390625 -44.71875 18.378906 -43.75 14.796875 -41.8125 C 11.210938 -39.882812 8.390625 -37.207031 6.328125 -33.78125 C 4.265625 -30.351562 3.234375 -26.390625 3.234375 -21.890625 Z M 13.796875 -21.890625 C 13.796875 -24.617188 14.363281 -27.03125 15.5 -29.125 C 16.644531 -31.21875 18.203125 -32.832031 20.171875 -33.96875 C 22.140625 -35.113281 24.359375 -35.6875 26.828125 -35.6875 C 29.304688 -35.6875 31.523438 -35.113281 33.484375 -33.96875 C 35.453125 -32.832031 37.007812 -31.21875 38.15625 -29.125 C 39.300781 -27.03125 39.875 -24.617188 39.875 -21.890625 C 39.875 -19.160156 39.300781 -16.765625 38.15625 -14.703125 C 37.007812 -12.640625 35.453125 -11.019531 33.484375 -9.84375 C 31.523438 -8.675781 29.304688 -8.09375 26.828125 -8.09375 C 24.359375 -8.09375 22.140625 -8.675781 20.171875 -9.84375 C 18.203125 -11.019531 16.644531 -12.640625 15.5 -14.703125 C 14.363281 -16.765625 13.796875 -19.160156 13.796875 -21.890625 Z M 13.796875 -21.890625 "/></g></g></g><g fill="#2d8b94" fill-opacity="1"><g transform="translate(700.884025, 103.150474)"><g><path d="M 6.5625 -74.21875 L 6.5625 0 L 16.9375 0 L 16.9375 -74.21875 Z M 6.5625 -74.21875 "/></g></g></g><g fill="#2d8b94" fill-opacity="1"><g transform="translate(718.389987, 103.150474)"><g><path d="M 3.234375 -21.890625 C 3.234375 -17.441406 4.265625 -13.488281 6.328125 -10.03125 C 8.390625 -6.582031 11.210938 -3.890625 14.796875 -1.953125 C 18.378906 -0.015625 22.390625 0.953125 26.828125 0.953125 C 31.335938 0.953125 35.367188 -0.015625 38.921875 -1.953125 C 42.472656 -3.890625 45.28125 -6.582031 47.34375 -10.03125 C 49.40625 -13.488281 50.4375 -17.441406 50.4375 -21.890625 C 50.4375 -26.390625 49.40625 -30.351562 47.34375 -33.78125 C 45.28125 -37.207031 42.472656 -39.882812 38.921875 -41.8125 C 35.367188 -43.75 31.335938 -44.71875 26.828125 -44.71875 C 22.390625 -44.71875 18.378906 -43.75 14.796875 -41.8125 C 11.210938 -39.882812 8.390625 -37.207031 6.328125 -33.78125 C 4.265625 -30.351562 3.234375 -26.390625 3.234375 -21.890625 Z M 13.796875 -21.890625 C 13.796875 -24.617188 14.363281 -27.03125 15.5 -29.125 C 16.644531 -31.21875 18.203125 -32.832031 20.171875 -33.96875 C 22.140625 -35.113281 24.359375 -35.6875 26.828125 -35.6875 C 29.304688 -35.6875 31.523438 -35.113281 33.484375 -33.96875 C 35.453125 -32.832031 37.007812 -31.21875 38.15625 -29.125 C 39.300781 -27.03125 39.875 -24.617188 39.875 -21.890625 C 39.875 -19.160156 39.300781 -16.765625 38.15625 -14.703125 C 37.007812 -12.640625 35.453125 -11.019531 33.484375 -9.84375 C 31.523438 -8.675781 29.304688 -8.09375 26.828125 -8.09375 C 24.359375 -8.09375 22.140625 -8.675781 20.171875 -9.84375 C 18.203125 -11.019531 16.644531 -12.640625 15.5 -14.703125 C 14.363281 -16.765625 13.796875 -19.160156 13.796875 -21.890625 Z M 13.796875 -21.890625 "/></g></g></g><g fill="#2d8b94" fill-opacity="1"><g transform="translate(766.152415, 103.150474)"><g><path d="M 4.09375 2.953125 C 4.21875 6.753906 5.195312 10.113281 7.03125 13.03125 C 8.875 15.945312 11.476562 18.210938 14.84375 19.828125 C 18.207031 21.453125 22.234375 22.265625 26.921875 22.265625 C 30.921875 22.265625 34.632812 21.421875 38.0625 19.734375 C 41.488281 18.054688 44.265625 15.503906 46.390625 12.078125 C 48.515625 8.660156 49.578125 4.316406 49.578125 -0.953125 L 49.578125 -43.765625 L 39.484375 -43.765625 L 39.484375 -0.953125 C 39.484375 2.347656 38.863281 5.046875 37.625 7.140625 C 36.394531 9.234375 34.796875 10.785156 32.828125 11.796875 C 30.859375 12.816406 28.828125 13.328125 26.734375 13.328125 C 24.265625 13.328125 22.109375 12.863281 20.265625 11.9375 C 18.429688 11.019531 17.003906 9.785156 15.984375 8.234375 C 14.972656 6.679688 14.4375 4.921875 14.375 2.953125 Z M 3.234375 -22.171875 C 3.234375 -17.347656 4.21875 -13.253906 6.1875 -9.890625 C 8.15625 -6.535156 10.769531 -3.96875 14.03125 -2.1875 C 17.300781 -0.414062 20.804688 0.46875 24.546875 0.46875 C 28.222656 0.46875 31.441406 -0.429688 34.203125 -2.234375 C 36.960938 -4.046875 39.148438 -6.644531 40.765625 -10.03125 C 42.390625 -13.425781 43.203125 -17.472656 43.203125 -22.171875 C 43.203125 -26.929688 42.390625 -30.972656 40.765625 -34.296875 C 39.148438 -37.628906 36.960938 -40.195312 34.203125 -42 C 31.441406 -43.8125 28.222656 -44.71875 24.546875 -44.71875 C 20.804688 -44.71875 17.300781 -43.828125 14.03125 -42.046875 C 10.769531 -40.273438 8.15625 -37.722656 6.1875 -34.390625 C 4.21875 -31.066406 3.234375 -26.992188 3.234375 -22.171875 Z M 13.890625 -22.171875 C 13.890625 -25.085938 14.492188 -27.5625 15.703125 -29.59375 C 16.910156 -31.625 18.507812 -33.160156 20.5 -34.203125 C 22.5 -35.253906 24.675781 -35.78125 27.03125 -35.78125 C 28.550781 -35.78125 30.039062 -35.492188 31.5 -34.921875 C 32.957031 -34.347656 34.285156 -33.472656 35.484375 -32.296875 C 36.691406 -31.128906 37.660156 -29.703125 38.390625 -28.015625 C 39.117188 -26.335938 39.484375 -24.390625 39.484375 -22.171875 C 39.484375 -19.191406 38.863281 -16.6875 37.625 -14.65625 C 36.394531 -12.625 34.828125 -11.082031 32.921875 -10.03125 C 31.015625 -8.988281 29.050781 -8.46875 27.03125 -8.46875 C 24.675781 -8.46875 22.5 -8.988281 20.5 -10.03125 C 18.507812 -11.082031 16.910156 -12.640625 15.703125 -14.703125 C 14.492188 -16.765625 13.890625 -19.253906 13.890625 -22.171875 Z M 13.890625 -22.171875 "/></g></g></g><g fill="#2d8b94" fill-opacity="1"><g transform="translate(816.007954, 103.150474)"><g><path d="M 7.609375 -43.765625 L 7.609375 0 L 17.796875 0 L 17.796875 -43.765625 Z M 28.359375 -66.140625 L 19.703125 -70.421875 L 5.421875 -55.1875 L 11.234375 -51.859375 Z M 28.359375 -66.140625 "/></g></g></g><g fill="#2d8b94" fill-opacity="1"><g transform="translate(835.511927, 103.150474)"><g><path d="M 13.03125 -13.609375 C 13.03125 -15.003906 13.363281 -16.175781 14.03125 -17.125 C 14.695312 -18.082031 15.695312 -18.828125 17.03125 -19.359375 C 18.363281 -19.898438 20.109375 -20.171875 22.265625 -20.171875 C 24.742188 -20.171875 27.09375 -19.851562 29.3125 -19.21875 C 31.53125 -18.582031 33.625 -17.566406 35.59375 -16.171875 L 35.59375 -21.40625 C 35.019531 -22.101562 34.035156 -22.878906 32.640625 -23.734375 C 31.242188 -24.597656 29.484375 -25.34375 27.359375 -25.96875 C 25.234375 -26.601562 22.710938 -26.921875 19.796875 -26.921875 C 14.335938 -26.921875 10.117188 -25.664062 7.140625 -23.15625 C 4.160156 -20.65625 2.671875 -17.28125 2.671875 -13.03125 C 2.671875 -10.050781 3.363281 -7.515625 4.75 -5.421875 C 6.144531 -3.328125 8.015625 -1.738281 10.359375 -0.65625 C 12.710938 0.414062 15.253906 0.953125 17.984375 0.953125 C 20.523438 0.953125 23.015625 0.492188 25.453125 -0.421875 C 27.898438 -1.347656 29.929688 -2.757812 31.546875 -4.65625 C 33.160156 -6.5625 33.96875 -8.910156 33.96875 -11.703125 L 32.453125 -17.40625 C 32.453125 -15.1875 31.941406 -13.285156 30.921875 -11.703125 C 29.910156 -10.117188 28.5625 -8.894531 26.875 -8.03125 C 25.195312 -7.175781 23.3125 -6.75 21.21875 -6.75 C 19.632812 -6.75 18.222656 -7.003906 16.984375 -7.515625 C 15.742188 -8.023438 14.773438 -8.800781 14.078125 -9.84375 C 13.378906 -10.894531 13.03125 -12.148438 13.03125 -13.609375 Z M 9.796875 -32.359375 C 10.492188 -32.796875 11.476562 -33.347656 12.75 -34.015625 C 14.019531 -34.679688 15.554688 -35.25 17.359375 -35.71875 C 19.171875 -36.195312 21.09375 -36.4375 23.125 -36.4375 C 24.457031 -36.4375 25.691406 -36.3125 26.828125 -36.0625 C 27.972656 -35.8125 28.972656 -35.398438 29.828125 -34.828125 C 30.679688 -34.253906 31.332031 -33.523438 31.78125 -32.640625 C 32.226562 -31.753906 32.453125 -30.613281 32.453125 -29.21875 L 32.453125 0 L 42.53125 0 L 42.53125 -31.21875 C 42.53125 -34.132812 41.753906 -36.601562 40.203125 -38.625 C 38.648438 -40.65625 36.476562 -42.191406 33.6875 -43.234375 C 30.894531 -44.285156 27.722656 -44.8125 24.171875 -44.8125 C 20.046875 -44.8125 16.425781 -44.238281 13.3125 -43.09375 C 10.207031 -41.957031 7.640625 -40.785156 5.609375 -39.578125 Z M 9.796875 -32.359375 "/></g></g></g><g fill="#2d8b94" fill-opacity="1"><g transform="translate(877.565623, 103.150474)"><g><path d="M 8.5625 -14.46875 L 2.5625 -8.375 C 3.832031 -6.726562 5.421875 -5.15625 7.328125 -3.65625 C 9.234375 -2.164062 11.421875 -0.960938 13.890625 -0.046875 C 16.367188 0.867188 19.128906 1.328125 22.171875 1.328125 C 26.929688 1.328125 30.722656 0.0742188 33.546875 -2.421875 C 36.367188 -4.929688 37.78125 -8.25 37.78125 -12.375 C 37.78125 -15.03125 37.175781 -17.179688 35.96875 -18.828125 C 34.757812 -20.484375 33.140625 -21.878906 31.109375 -23.015625 C 29.085938 -24.160156 26.835938 -25.210938 24.359375 -26.171875 C 22.585938 -26.867188 20.984375 -27.535156 19.546875 -28.171875 C 18.117188 -28.804688 16.976562 -29.519531 16.125 -30.3125 C 15.269531 -31.101562 14.84375 -32.003906 14.84375 -33.015625 C 14.84375 -34.222656 15.316406 -35.144531 16.265625 -35.78125 C 17.222656 -36.414062 18.460938 -36.734375 19.984375 -36.734375 C 22.140625 -36.734375 24.234375 -36.191406 26.265625 -35.109375 C 28.296875 -34.035156 30.007812 -32.640625 31.40625 -30.921875 L 37.109375 -37.015625 C 35.898438 -38.472656 34.441406 -39.769531 32.734375 -40.90625 C 31.023438 -42.050781 29.101562 -42.972656 26.96875 -43.671875 C 24.84375 -44.367188 22.578125 -44.71875 20.171875 -44.71875 C 17.503906 -44.71875 15.015625 -44.289062 12.703125 -43.4375 C 10.390625 -42.582031 8.550781 -41.265625 7.1875 -39.484375 C 5.820312 -37.710938 5.140625 -35.492188 5.140625 -32.828125 C 5.140625 -30.222656 5.753906 -28.0625 6.984375 -26.34375 C 8.222656 -24.632812 9.8125 -23.257812 11.75 -22.21875 C 13.6875 -21.175781 15.640625 -20.269531 17.609375 -19.5 C 19.566406 -18.800781 21.273438 -18.117188 22.734375 -17.453125 C 24.203125 -16.796875 25.347656 -16.003906 26.171875 -15.078125 C 26.992188 -14.160156 27.40625 -13.066406 27.40625 -11.796875 C 27.40625 -10.335938 26.878906 -9.195312 25.828125 -8.375 C 24.785156 -7.550781 23.34375 -7.140625 21.5 -7.140625 C 20.039062 -7.140625 18.582031 -7.421875 17.125 -7.984375 C 15.664062 -8.554688 14.238281 -9.378906 12.84375 -10.453125 C 11.445312 -11.535156 10.019531 -12.875 8.5625 -14.46875 Z M 8.5625 -14.46875 "/></g></g></g><g fill="#2d8b94" fill-opacity="1"><g transform="translate(912.007493, 103.150474)"><g/></g></g><g fill="#2d8b94" fill-opacity="1"><g transform="translate(934.651405, 103.150474)"><g><path d="M 15.421875 -17.125 L 50.625 -17.125 L 48.53125 -26.640625 L 17.609375 -26.640625 Z M 32.828125 -47.765625 L 43.484375 -23.03125 L 43.671875 -20.265625 L 52.71875 0 L 65.46875 0 L 32.828125 -70.328125 L 0.28125 0 L 12.9375 0 L 22.171875 -20.84375 L 22.359375 -23.3125 Z M 32.828125 -47.765625 "/></g></g></g><g fill="#2d8b94" fill-opacity="1"><g transform="translate(994.402172, 103.150474)"><g><path d="M 16.5625 20.9375 L 16.5625 -43.765625 L 6.1875 -43.765625 L 6.1875 20.9375 Z M 52.8125 -21.890625 C 52.8125 -26.835938 51.828125 -31.003906 49.859375 -34.390625 C 47.890625 -37.785156 45.285156 -40.40625 42.046875 -42.25 C 38.816406 -44.09375 35.300781 -45.015625 31.5 -45.015625 C 27.820312 -45.015625 24.601562 -44.0625 21.84375 -42.15625 C 19.082031 -40.25 16.9375 -37.582031 15.40625 -34.15625 C 13.882812 -30.726562 13.125 -26.640625 13.125 -21.890625 C 13.125 -17.191406 13.882812 -13.113281 15.40625 -9.65625 C 16.9375 -6.195312 19.082031 -3.53125 21.84375 -1.65625 C 24.601562 0.207031 27.820312 1.140625 31.5 1.140625 C 35.300781 1.140625 38.816406 0.238281 42.046875 -1.5625 C 45.285156 -3.375 47.890625 -6.007812 49.859375 -9.46875 C 51.828125 -12.925781 52.8125 -17.066406 52.8125 -21.890625 Z M 42.15625 -21.890625 C 42.15625 -18.972656 41.550781 -16.5 40.34375 -14.46875 C 39.132812 -12.4375 37.546875 -10.878906 35.578125 -9.796875 C 33.617188 -8.722656 31.429688 -8.1875 29.015625 -8.1875 C 26.992188 -8.1875 25.03125 -8.707031 23.125 -9.75 C 21.21875 -10.800781 19.644531 -12.335938 18.40625 -14.359375 C 17.175781 -16.390625 16.5625 -18.898438 16.5625 -21.890625 C 16.5625 -24.867188 17.175781 -27.375 18.40625 -29.40625 C 19.644531 -31.4375 21.21875 -32.972656 23.125 -34.015625 C 25.03125 -35.066406 26.992188 -35.59375 29.015625 -35.59375 C 31.429688 -35.59375 33.617188 -35.066406 35.578125 -34.015625 C 37.546875 -32.972656 39.132812 -31.421875 40.34375 -29.359375 C 41.550781 -27.296875 42.15625 -24.804688 42.15625 -21.890625 Z M 42.15625 -21.890625 "/></g></g></g><g fill="#2d8b94" fill-opacity="1"><g transform="translate(1044.543103, 103.150474)"><g><path d="M 6.5625 -74.21875 L 6.5625 0 L 16.9375 0 L 16.9375 -74.21875 Z M 6.5625 -74.21875 "/></g></g></g><g fill="#2d8b94" fill-opacity="1"><g transform="translate(1062.049156, 103.150474)"><g><path d="M 6.1875 -61.1875 C 6.1875 -59.46875 6.835938 -57.988281 8.140625 -56.75 C 9.441406 -55.519531 10.945312 -54.90625 12.65625 -54.90625 C 14.5 -54.90625 16.050781 -55.519531 17.3125 -56.75 C 18.582031 -57.988281 19.21875 -59.46875 19.21875 -61.1875 C 19.21875 -62.957031 18.582031 -64.445312 17.3125 -65.65625 C 16.050781 -66.863281 14.5 -67.46875 12.65625 -67.46875 C 10.945312 -67.46875 9.441406 -66.863281 8.140625 -65.65625 C 6.835938 -64.445312 6.1875 -62.957031 6.1875 -61.1875 Z M 7.609375 -43.765625 L 7.609375 0 L 17.796875 0 L 17.796875 -43.765625 Z M 7.609375 -43.765625 "/></g></g></g><g fill="#2d8b94" fill-opacity="1"><g transform="translate(1081.553129, 103.150474)"><g><path d="M 13.421875 -21.890625 C 13.421875 -24.617188 14.019531 -27.03125 15.21875 -29.125 C 16.425781 -31.21875 18.0625 -32.863281 20.125 -34.0625 C 22.1875 -35.269531 24.488281 -35.875 27.03125 -35.875 C 29.050781 -35.875 31.015625 -35.554688 32.921875 -34.921875 C 34.828125 -34.285156 36.523438 -33.410156 38.015625 -32.296875 C 39.503906 -31.191406 40.597656 -29.910156 41.296875 -28.453125 L 41.296875 -39.875 C 39.773438 -41.332031 37.710938 -42.503906 35.109375 -43.390625 C 32.515625 -44.273438 29.660156 -44.71875 26.546875 -44.71875 C 22.109375 -44.71875 18.097656 -43.75 14.515625 -41.8125 C 10.929688 -39.882812 8.09375 -37.207031 6 -33.78125 C 3.90625 -30.351562 2.859375 -26.390625 2.859375 -21.890625 C 2.859375 -17.441406 3.90625 -13.488281 6 -10.03125 C 8.09375 -6.582031 10.929688 -3.890625 14.515625 -1.953125 C 18.097656 -0.015625 22.109375 0.953125 26.546875 0.953125 C 29.660156 0.953125 32.515625 0.507812 35.109375 -0.375 C 37.710938 -1.269531 39.773438 -2.476562 41.296875 -4 L 41.296875 -15.3125 C 40.597656 -13.925781 39.519531 -12.675781 38.0625 -11.5625 C 36.601562 -10.445312 34.9375 -9.554688 33.0625 -8.890625 C 31.195312 -8.222656 29.1875 -7.890625 27.03125 -7.890625 C 24.488281 -7.890625 22.1875 -8.492188 20.125 -9.703125 C 18.0625 -10.910156 16.425781 -12.5625 15.21875 -14.65625 C 14.019531 -16.75 13.421875 -19.160156 13.421875 -21.890625 Z M 13.421875 -21.890625 "/></g></g></g><g fill="#2d8b94" fill-opacity="1"><g transform="translate(1121.703822, 103.150474)"><g><path d="M 13.03125 -13.609375 C 13.03125 -15.003906 13.363281 -16.175781 14.03125 -17.125 C 14.695312 -18.082031 15.695312 -18.828125 17.03125 -19.359375 C 18.363281 -19.898438 20.109375 -20.171875 22.265625 -20.171875 C 24.742188 -20.171875 27.09375 -19.851562 29.3125 -19.21875 C 31.53125 -18.582031 33.625 -17.566406 35.59375 -16.171875 L 35.59375 -21.40625 C 35.019531 -22.101562 34.035156 -22.878906 32.640625 -23.734375 C 31.242188 -24.597656 29.484375 -25.34375 27.359375 -25.96875 C 25.234375 -26.601562 22.710938 -26.921875 19.796875 -26.921875 C 14.335938 -26.921875 10.117188 -25.664062 7.140625 -23.15625 C 4.160156 -20.65625 2.671875 -17.28125 2.671875 -13.03125 C 2.671875 -10.050781 3.363281 -7.515625 4.75 -5.421875 C 6.144531 -3.328125 8.015625 -1.738281 10.359375 -0.65625 C 12.710938 0.414062 15.253906 0.953125 17.984375 0.953125 C 20.523438 0.953125 23.015625 0.492188 25.453125 -0.421875 C 27.898438 -1.347656 29.929688 -2.757812 31.546875 -4.65625 C 33.160156 -6.5625 33.96875 -8.910156 33.96875 -11.703125 L 32.453125 -17.40625 C 32.453125 -15.1875 31.941406 -13.285156 30.921875 -11.703125 C 29.910156 -10.117188 28.5625 -8.894531 26.875 -8.03125 C 25.195312 -7.175781 23.3125 -6.75 21.21875 -6.75 C 19.632812 -6.75 18.222656 -7.003906 16.984375 -7.515625 C 15.742188 -8.023438 14.773438 -8.800781 14.078125 -9.84375 C 13.378906 -10.894531 13.03125 -12.148438 13.03125 -13.609375 Z M 9.796875 -32.359375 C 10.492188 -32.796875 11.476562 -33.347656 12.75 -34.015625 C 14.019531 -34.679688 15.554688 -35.25 17.359375 -35.71875 C 19.171875 -36.195312 21.09375 -36.4375 23.125 -36.4375 C 24.457031 -36.4375 25.691406 -36.3125 26.828125 -36.0625 C 27.972656 -35.8125 28.972656 -35.398438 29.828125 -34.828125 C 30.679688 -34.253906 31.332031 -33.523438 31.78125 -32.640625 C 32.226562 -31.753906 32.453125 -30.613281 32.453125 -29.21875 L 32.453125 0 L 42.53125 0 L 42.53125 -31.21875 C 42.53125 -34.132812 41.753906 -36.601562 40.203125 -38.625 C 38.648438 -40.65625 36.476562 -42.191406 33.6875 -43.234375 C 30.894531 -44.285156 27.722656 -44.8125 24.171875 -44.8125 C 20.046875 -44.8125 16.425781 -44.238281 13.3125 -43.09375 C 10.207031 -41.957031 7.640625 -40.785156 5.609375 -39.578125 Z M 9.796875 -32.359375 "/></g></g></g><g fill="#2d8b94" fill-opacity="1"><g transform="translate(1163.757426, 103.150474)"><g><path d="M 39.484375 -74.21875 L 39.484375 0 L 49.859375 0 L 49.859375 -74.21875 Z M 3.234375 -21.890625 C 3.234375 -17.128906 4.21875 -13.035156 6.1875 -9.609375 C 8.15625 -6.179688 10.769531 -3.5625 14.03125 -1.75 C 17.300781 0.0507812 20.804688 0.953125 24.546875 0.953125 C 28.222656 0.953125 31.441406 0.0351562 34.203125 -1.796875 C 36.960938 -3.640625 39.148438 -6.273438 40.765625 -9.703125 C 42.390625 -13.128906 43.203125 -17.191406 43.203125 -21.890625 C 43.203125 -26.640625 42.390625 -30.710938 40.765625 -34.109375 C 39.148438 -37.503906 36.960938 -40.117188 34.203125 -41.953125 C 31.441406 -43.796875 28.222656 -44.71875 24.546875 -44.71875 C 20.804688 -44.71875 17.300781 -43.8125 14.03125 -42 C 10.769531 -40.195312 8.15625 -37.597656 6.1875 -34.203125 C 4.21875 -30.816406 3.234375 -26.710938 3.234375 -21.890625 Z M 13.890625 -21.890625 C 13.890625 -24.804688 14.492188 -27.3125 15.703125 -29.40625 C 16.910156 -31.5 18.507812 -33.082031 20.5 -34.15625 C 22.5 -35.238281 24.675781 -35.78125 27.03125 -35.78125 C 29.050781 -35.78125 31.015625 -35.238281 32.921875 -34.15625 C 34.828125 -33.082031 36.394531 -31.515625 37.625 -29.453125 C 38.863281 -27.390625 39.484375 -24.867188 39.484375 -21.890625 C 39.484375 -18.898438 38.863281 -16.375 37.625 -14.3125 C 36.394531 -12.257812 34.828125 -10.691406 32.921875 -9.609375 C 31.015625 -8.535156 29.050781 -8 27.03125 -8 C 24.675781 -8 22.5 -8.535156 20.5 -9.609375 C 18.507812 -10.691406 16.910156 -12.28125 15.703125 -14.375 C 14.492188 -16.46875 13.890625 -18.972656 13.890625 -21.890625 Z M 13.890625 -21.890625 "/></g></g></g><g fill="#2d8b94" fill-opacity="1"><g transform="translate(1213.898448, 103.150474)"><g><path d="M 13.03125 -13.609375 C 13.03125 -15.003906 13.363281 -16.175781 14.03125 -17.125 C 14.695312 -18.082031 15.695312 -18.828125 17.03125 -19.359375 C 18.363281 -19.898438 20.109375 -20.171875 22.265625 -20.171875 C 24.742188 -20.171875 27.09375 -19.851562 29.3125 -19.21875 C 31.53125 -18.582031 33.625 -17.566406 35.59375 -16.171875 L 35.59375 -21.40625 C 35.019531 -22.101562 34.035156 -22.878906 32.640625 -23.734375 C 31.242188 -24.597656 29.484375 -25.34375 27.359375 -25.96875 C 25.234375 -26.601562 22.710938 -26.921875 19.796875 -26.921875 C 14.335938 -26.921875 10.117188 -25.664062 7.140625 -23.15625 C 4.160156 -20.65625 2.671875 -17.28125 2.671875 -13.03125 C 2.671875 -10.050781 3.363281 -7.515625 4.75 -5.421875 C 6.144531 -3.328125 8.015625 -1.738281 10.359375 -0.65625 C 12.710938 0.414062 15.253906 0.953125 17.984375 0.953125 C 20.523438 0.953125 23.015625 0.492188 25.453125 -0.421875 C 27.898438 -1.347656 29.929688 -2.757812 31.546875 -4.65625 C 33.160156 -6.5625 33.96875 -8.910156 33.96875 -11.703125 L 32.453125 -17.40625 C 32.453125 -15.1875 31.941406 -13.285156 30.921875 -11.703125 C 29.910156 -10.117188 28.5625 -8.894531 26.875 -8.03125 C 25.195312 -7.175781 23.3125 -6.75 21.21875 -6.75 C 19.632812 -6.75 18.222656 -7.003906 16.984375 -7.515625 C 15.742188 -8.023438 14.773438 -8.800781 14.078125 -9.84375 C 13.378906 -10.894531 13.03125 -12.148438 13.03125 -13.609375 Z M 9.796875 -32.359375 C 10.492188 -32.796875 11.476562 -33.347656 12.75 -34.015625 C 14.019531 -34.679688 15.554688 -35.25 17.359375 -35.71875 C 19.171875 -36.195312 21.09375 -36.4375 23.125 -36.4375 C 24.457031 -36.4375 25.691406 -36.3125 26.828125 -36.0625 C 27.972656 -35.8125 28.972656 -35.398438 29.828125 -34.828125 C 30.679688 -34.253906 31.332031 -33.523438 31.78125 -32.640625 C 32.226562 -31.753906 32.453125 -30.613281 32.453125 -29.21875 L 32.453125 0 L 42.53125 0 L 42.53125 -31.21875 C 42.53125 -34.132812 41.753906 -36.601562 40.203125 -38.625 C 38.648438 -40.65625 36.476562 -42.191406 33.6875 -43.234375 C 30.894531 -44.285156 27.722656 -44.8125 24.171875 -44.8125 C 20.046875 -44.8125 16.425781 -44.238281 13.3125 -43.09375 C 10.207031 -41.957031 7.640625 -40.785156 5.609375 -39.578125 Z M 9.796875 -32.359375 "/></g></g></g><g fill="#2d8b94" fill-opacity="1"><g transform="translate(1255.952052, 103.150474)"><g><path d="M 8.5625 -14.46875 L 2.5625 -8.375 C 3.832031 -6.726562 5.421875 -5.15625 7.328125 -3.65625 C 9.234375 -2.164062 11.421875 -0.960938 13.890625 -0.046875 C 16.367188 0.867188 19.128906 1.328125 22.171875 1.328125 C 26.929688 1.328125 30.722656 0.0742188 33.546875 -2.421875 C 36.367188 -4.929688 37.78125 -8.25 37.78125 -12.375 C 37.78125 -15.03125 37.175781 -17.179688 35.96875 -18.828125 C 34.757812 -20.484375 33.140625 -21.878906 31.109375 -23.015625 C 29.085938 -24.160156 26.835938 -25.210938 24.359375 -26.171875 C 22.585938 -26.867188 20.984375 -27.535156 19.546875 -28.171875 C 18.117188 -28.804688 16.976562 -29.519531 16.125 -30.3125 C 15.269531 -31.101562 14.84375 -32.003906 14.84375 -33.015625 C 14.84375 -34.222656 15.316406 -35.144531 16.265625 -35.78125 C 17.222656 -36.414062 18.460938 -36.734375 19.984375 -36.734375 C 22.140625 -36.734375 24.234375 -36.191406 26.265625 -35.109375 C 28.296875 -34.035156 30.007812 -32.640625 31.40625 -30.921875 L 37.109375 -37.015625 C 35.898438 -38.472656 34.441406 -39.769531 32.734375 -40.90625 C 31.023438 -42.050781 29.101562 -42.972656 26.96875 -43.671875 C 24.84375 -44.367188 22.578125 -44.71875 20.171875 -44.71875 C 17.503906 -44.71875 15.015625 -44.289062 12.703125 -43.4375 C 10.390625 -42.582031 8.550781 -41.265625 7.1875 -39.484375 C 5.820312 -37.710938 5.140625 -35.492188 5.140625 -32.828125 C 5.140625 -30.222656 5.753906 -28.0625 6.984375 -26.34375 C 8.222656 -24.632812 9.8125 -23.257812 11.75 -22.21875 C 13.6875 -21.175781 15.640625 -20.269531 17.609375 -19.5 C 19.566406 -18.800781 21.273438 -18.117188 22.734375 -17.453125 C 24.203125 -16.796875 25.347656 -16.003906 26.171875 -15.078125 C 26.992188 -14.160156 27.40625 -13.066406 27.40625 -11.796875 C 27.40625 -10.335938 26.878906 -9.195312 25.828125 -8.375 C 24.785156 -7.550781 23.34375 -7.140625 21.5 -7.140625 C 20.039062 -7.140625 18.582031 -7.421875 17.125 -7.984375 C 15.664062 -8.554688 14.238281 -9.378906 12.84375 -10.453125 C 11.445312 -11.535156 10.019531 -12.875 8.5625 -14.46875 Z M 8.5625 -14.46875 "/></g></g></g><g fill="#2d8b94" fill-opacity="1"><g transform="translate(1290.405569, 103.150474)"><g/></g></g></g></g><g transform="matrix(1, 0, 0, 1, 124, 2)"><g clip-path="url(#85c765a164)"><g fill="#4e2878" fill-opacity="1"><g transform="translate(1.094678, 273.455145)"><g><path d="M 44.1875 -40.609375 L 138.6875 -40.609375 L 134.359375 -69.46875 L 48.53125 -69.46875 Z M 90.9375 -120.8125 L 117.75 -58.75 L 117.234375 -49.546875 L 140.234375 0 L 181.609375 0 L 90.9375 -189.265625 L 0.25 0 L 41.375 0 L 64.875 -51.078125 L 64.109375 -59.265625 Z M 90.9375 -120.8125 "/></g></g></g><g fill="#4e2878" fill-opacity="1"><g transform="translate(166.85317, 273.455145)"><g><path d="M 10.734375 8.171875 C 11.410156 18.390625 14.175781 27.457031 19.03125 35.375 C 23.882812 43.289062 30.90625 49.421875 40.09375 53.765625 C 49.289062 58.109375 60.703125 60.28125 74.328125 60.28125 C 85.566406 60.28125 95.953125 58.109375 105.484375 53.765625 C 115.023438 49.421875 122.644531 42.566406 128.34375 33.203125 C 134.050781 23.835938 136.90625 11.921875 136.90625 -2.546875 L 136.90625 -117.5 L 104.984375 -117.5 L 104.984375 -2.546875 C 104.984375 5.453125 103.488281 12.085938 100.5 17.359375 C 97.519531 22.640625 93.601562 26.554688 88.75 29.109375 C 83.90625 31.671875 78.757812 32.953125 73.3125 32.953125 C 67.34375 32.953125 62.144531 31.925781 57.71875 29.875 C 53.289062 27.832031 49.800781 24.984375 47.25 21.328125 C 44.695312 17.671875 43.335938 13.285156 43.171875 8.171875 Z M 8.421875 -59.765625 C 8.421875 -46.828125 11.0625 -35.882812 16.34375 -26.9375 C 21.625 -18 28.601562 -11.234375 37.28125 -6.640625 C 45.96875 -2.046875 55.164062 0.25 64.875 0.25 C 74.75 0.25 83.472656 -2.085938 91.046875 -6.765625 C 98.628906 -11.453125 104.59375 -18.304688 108.9375 -27.328125 C 113.28125 -36.359375 115.453125 -47.171875 115.453125 -59.765625 C 115.453125 -72.535156 113.28125 -83.390625 108.9375 -92.328125 C 104.59375 -101.273438 98.628906 -108.128906 91.046875 -112.890625 C 83.472656 -117.660156 74.75 -120.046875 64.875 -120.046875 C 55.164062 -120.046875 45.96875 -117.742188 37.28125 -113.140625 C 28.601562 -108.546875 21.625 -101.78125 16.34375 -92.84375 C 11.0625 -83.90625 8.421875 -72.878906 8.421875 -59.765625 Z M 42.65625 -59.765625 C 42.65625 -66.921875 44.101562 -72.925781 47 -77.78125 C 49.894531 -82.632812 53.8125 -86.335938 58.75 -88.890625 C 63.6875 -91.441406 68.960938 -92.71875 74.578125 -92.71875 C 78.328125 -92.71875 81.988281 -91.992188 85.5625 -90.546875 C 89.144531 -89.097656 92.425781 -87.007812 95.40625 -84.28125 C 98.382812 -81.5625 100.722656 -78.15625 102.421875 -74.0625 C 104.128906 -69.976562 104.984375 -65.210938 104.984375 -59.765625 C 104.984375 -52.617188 103.488281 -46.617188 100.5 -41.765625 C 97.519531 -36.910156 93.6875 -33.25 89 -30.78125 C 84.320312 -28.3125 79.515625 -27.078125 74.578125 -27.078125 C 68.960938 -27.078125 63.6875 -28.351562 58.75 -30.90625 C 53.8125 -33.457031 49.894531 -37.160156 47 -42.015625 C 44.101562 -46.867188 42.65625 -52.785156 42.65625 -59.765625 Z M 42.65625 -59.765625 "/></g></g></g><g fill="#4e2878" fill-opacity="1"><g transform="translate(303.750523, 273.455145)"><g><path d="M 48.78125 -117.5 L 16.34375 -117.5 L 16.34375 0 L 48.78125 0 Z M 83.265625 -83.015625 L 98.34375 -111.109375 C 95.957031 -114.171875 92.847656 -116.46875 89.015625 -118 C 85.179688 -119.53125 81.132812 -120.296875 76.875 -120.296875 C 70.75 -120.296875 64.789062 -118.125 59 -113.78125 C 53.207031 -109.445312 48.523438 -103.660156 44.953125 -96.421875 C 41.378906 -89.179688 39.59375 -80.878906 39.59375 -71.515625 L 48.78125 -62.328125 C 48.78125 -67.941406 49.503906 -72.75 50.953125 -76.75 C 52.398438 -80.75 54.570312 -83.851562 57.46875 -86.0625 C 60.363281 -88.28125 63.851562 -89.390625 67.9375 -89.390625 C 71.34375 -89.390625 74.195312 -88.835938 76.5 -87.734375 C 78.800781 -86.628906 81.054688 -85.054688 83.265625 -83.015625 Z M 83.265625 -83.015625 "/></g></g></g><g fill="#4e2878" fill-opacity="1"><g transform="translate(387.522921, 273.455145)"><g><path d="M 8.421875 -58.75 C 8.421875 -46.65625 11.273438 -35.96875 16.984375 -26.6875 C 22.691406 -17.40625 30.441406 -10.210938 40.234375 -5.109375 C 50.023438 -0.00390625 61.132812 2.546875 73.5625 2.546875 C 85.988281 2.546875 97.097656 -0.00390625 106.890625 -5.109375 C 116.679688 -10.210938 124.425781 -17.40625 130.125 -26.6875 C 135.832031 -35.96875 138.6875 -46.65625 138.6875 -58.75 C 138.6875 -71.007812 135.832031 -81.734375 130.125 -90.921875 C 124.425781 -100.117188 116.679688 -107.269531 106.890625 -112.375 C 97.097656 -117.488281 85.988281 -120.046875 73.5625 -120.046875 C 61.132812 -120.046875 50.023438 -117.488281 40.234375 -112.375 C 30.441406 -107.269531 22.691406 -100.117188 16.984375 -90.921875 C 11.273438 -81.734375 8.421875 -71.007812 8.421875 -58.75 Z M 42.140625 -58.75 C 42.140625 -65.382812 43.546875 -71.253906 46.359375 -76.359375 C 49.171875 -81.472656 52.957031 -85.390625 57.71875 -88.109375 C 62.488281 -90.835938 67.769531 -92.203125 73.5625 -92.203125 C 79.351562 -92.203125 84.628906 -90.835938 89.390625 -88.109375 C 94.160156 -85.390625 97.953125 -81.472656 100.765625 -76.359375 C 103.578125 -71.253906 104.984375 -65.382812 104.984375 -58.75 C 104.984375 -52.101562 103.578125 -46.269531 100.765625 -41.25 C 97.953125 -36.226562 94.160156 -32.3125 89.390625 -29.5 C 84.628906 -26.6875 79.351562 -25.28125 73.5625 -25.28125 C 67.769531 -25.28125 62.488281 -26.6875 57.71875 -29.5 C 52.957031 -32.3125 49.171875 -36.226562 46.359375 -41.25 C 43.546875 -46.269531 42.140625 -52.101562 42.140625 -58.75 Z M 42.140625 -58.75 "/></g></g></g><g fill="#4e2878" fill-opacity="1"><g transform="translate(518.801305, 273.455145)"><g><path d="M 19.40625 -178.796875 L 19.40625 0 L 127.203125 0 L 127.203125 -31.921875 L 55.9375 -31.921875 L 55.9375 -178.796875 Z M 19.40625 -178.796875 "/></g></g></g><g fill="#4e2878" fill-opacity="1"><g transform="translate(631.690248, 273.455145)"><g><path d="M 19.40625 -178.796875 L 19.40625 0 L 56.453125 0 L 56.453125 -178.796875 Z M 19.40625 -178.796875 "/></g></g></g><g fill="#4e2878" fill-opacity="1"><g transform="translate(691.454351, 273.455145)"><g><path d="M 146.609375 -178.796875 L 146.609375 -67.9375 L 19.40625 -187.734375 L 19.40625 0 L 54.65625 0 L 54.65625 -110.859375 L 181.859375 8.9375 L 181.859375 -178.796875 Z M 146.609375 -178.796875 "/></g></g></g><g fill="#4e2878" fill-opacity="1"><g transform="translate(876.879281, 273.455145)"><g><path d="M 48.78125 -89.390625 C 48.78125 -101.316406 51.460938 -111.617188 56.828125 -120.296875 C 62.191406 -128.984375 69.21875 -135.664062 77.90625 -140.34375 C 86.59375 -145.03125 96.039062 -147.375 106.25 -147.375 C 114.769531 -147.375 122.347656 -146.265625 128.984375 -144.046875 C 135.628906 -141.835938 141.632812 -138.859375 147 -135.109375 C 152.363281 -131.367188 157.003906 -127.285156 160.921875 -122.859375 L 160.921875 -163.984375 C 153.597656 -169.773438 145.632812 -174.285156 137.03125 -177.515625 C 128.4375 -180.753906 117.582031 -182.375 104.46875 -182.375 C 90.84375 -182.375 78.195312 -180.160156 66.53125 -175.734375 C 54.875 -171.304688 44.742188 -164.921875 36.140625 -156.578125 C 27.546875 -148.234375 20.90625 -138.398438 16.21875 -127.078125 C 11.53125 -115.753906 9.1875 -103.191406 9.1875 -89.390625 C 9.1875 -75.597656 11.53125 -63.039062 16.21875 -51.71875 C 20.90625 -40.394531 27.546875 -30.5625 36.140625 -22.21875 C 44.742188 -13.875 54.875 -7.488281 66.53125 -3.0625 C 78.195312 1.363281 90.84375 3.578125 104.46875 3.578125 C 117.582031 3.578125 128.4375 1.960938 137.03125 -1.265625 C 145.632812 -4.503906 153.597656 -9.019531 160.921875 -14.8125 L 160.921875 -55.9375 C 157.003906 -51.507812 152.363281 -47.421875 147 -43.671875 C 141.632812 -39.929688 135.628906 -36.953125 128.984375 -34.734375 C 122.347656 -32.523438 114.769531 -31.421875 106.25 -31.421875 C 96.039062 -31.421875 86.59375 -33.757812 77.90625 -38.4375 C 69.21875 -43.125 62.191406 -49.851562 56.828125 -58.625 C 51.460938 -67.394531 48.78125 -77.648438 48.78125 -89.390625 Z M 48.78125 -89.390625 "/></g></g></g></g></g></svg>